<svg width="370" height="208" viewBox="0 0 370 208" fill="none" xmlns="http://www.w3.org/2000/svg">
<path d="M369.678 13.615V178.522L203.117 207.492V52.3659V31.495L319.026 19.0524L369.678 13.615Z" fill="#B80000"/>
<path d="M318.853 19.1445L269.785 24.2575L269.502 43.9293L267.309 196.323L318.853 187.36V19.1445Z" fill="white"/>
<path d="M318.853 37.9634L369.678 31.8197V13.615L318.853 19.0298V37.9634Z" fill="#7A0000"/>
<path d="M203.117 31.3603V51.9539L269.502 43.9293L269.785 24.2576L203.117 31.3603Z" fill="#7A0000"/>
<path d="M109.467 16.9017L55.9614 8.64038C55.9816 14.7399 56.0029 21.1362 56.0257 27.7362C56.2399 89.8032 56.5709 169.583 56.8978 184.569C56.8984 184.598 56.8989 184.627 56.8996 184.655C56.9032 184.816 56.9066 184.969 56.9102 185.114C56.9116 185.176 56.9132 185.233 56.9147 185.292C56.9177 185.405 56.9206 185.521 56.9236 185.623C56.9281 185.788 56.9328 185.942 56.9374 186.079C56.9383 186.101 56.9387 186.122 56.9396 186.144C56.9437 186.261 56.9478 186.364 56.9519 186.459C56.9532 186.492 56.9546 186.525 56.9559 186.555C56.9598 186.635 56.9634 186.703 56.967 186.765C56.9684 186.786 56.9698 186.812 56.9711 186.832C56.9761 186.906 56.9811 186.966 56.9861 187.006C56.9861 187.006 56.9987 187.009 57.0071 187.011C57.8918 187.208 105.836 197.848 109.804 194.412L109.806 194.41C109.806 194.41 109.806 194.34 109.806 194.209C109.805 194.124 109.805 194.009 109.805 193.87C109.8 192.493 109.788 188.497 109.77 182.492C109.69 155.929 109.508 89.9813 109.473 36.5363C109.469 29.7537 109.467 23.175 109.467 16.9017Z" fill="white"/>
<path d="M55.9612 8.64018L0 0V18.5115L56.0255 27.736C56.0026 21.1362 55.9816 14.7397 55.9612 8.64018Z" fill="#990000"/>
<path d="M197.767 30.5342C198.388 39.9177 198.485 46.2583 198.485 46.2583C198.485 46.2583 179.207 42.9505 170.163 46.5272C170.162 46.5275 170.162 46.5279 170.161 46.5281L203.117 51.9541V31.3605L197.767 30.5342Z" fill="#990000"/>
<path d="M109.467 16.9012C109.466 23.1745 109.468 29.7534 109.473 36.5358L202.746 51.9932C203.491 44.912 203.491 38.5762 203.491 31.1223L109.467 16.9012Z" fill="#990000"/>
<path d="M110.47 193.264C110.47 193.178 110.469 193.063 110.469 192.924C110.464 191.547 110.452 187.551 110.434 181.546C110.433 181.305 110.432 181.071 110.432 180.824L57.3949 170.694C57.4637 178.016 57.533 183.096 57.6016 185.133C57.6025 185.156 57.6029 185.177 57.6038 185.198C57.6079 185.315 57.612 185.418 57.616 185.514C57.6174 185.546 57.6188 185.579 57.6201 185.609C57.624 185.689 57.6276 185.757 57.6312 185.819C57.6326 185.841 57.6339 185.867 57.6353 185.886C57.6403 185.96 57.6452 186.021 57.6502 186.061C57.6502 186.061 57.6629 186.063 57.6713 186.065C58.556 186.262 106.5 196.903 110.468 193.466C110.469 193.466 110.47 193.465 110.471 193.465C110.471 193.465 110.47 193.394 110.47 193.264Z" fill="#EBEBEB"/>
<path d="M267.309 196.323L318.853 187.36V175.356L267.486 184.062L267.309 196.323Z" fill="#EBEBEB"/>
<path d="M55.9397 26.8339L0 17.8893V177.775L57.066 185.974L55.9397 26.8339Z" fill="#E10000"/>
<path d="M204.236 51.059L110.002 35.7786L110.378 193.428L204.236 206.472V51.059Z" fill="#E10000"/>
</svg>
