<svg width="400" height="341" viewBox="0 0 400 341" fill="none" xmlns="http://www.w3.org/2000/svg">
<path d="M392.04 146.294V311.201L225.478 340.171V185.045V164.174L341.388 151.732L392.04 146.294Z" fill="#B80000"/>
<path d="M341.215 151.824L292.146 156.937L291.863 176.608L289.671 329.002L341.215 320.039V151.824Z" fill="white"/>
<path d="M341.215 170.643L392.04 164.499V146.294L341.215 151.709V170.643Z" fill="#7A0000"/>
<path d="M225.478 164.039V184.633L291.863 176.608L292.146 156.937L225.478 164.039Z" fill="#7A0000"/>
<path d="M131.829 149.581L78.3231 141.32C78.3432 147.419 78.3645 153.815 78.3874 160.415C78.6015 222.482 78.9325 302.262 79.2594 317.248C79.2601 317.277 79.2605 317.306 79.2612 317.334C79.2648 317.495 79.2682 317.648 79.2718 317.793C79.2732 317.855 79.2748 317.912 79.2764 317.971C79.2793 318.085 79.2823 318.2 79.2852 318.303C79.2897 318.467 79.2945 318.621 79.299 318.758C79.2999 318.78 79.3004 318.801 79.3013 318.823C79.3053 318.94 79.3094 319.043 79.3135 319.138C79.3149 319.171 79.3162 319.204 79.3176 319.234C79.3214 319.314 79.325 319.382 79.3287 319.444C79.33 319.466 79.3314 319.492 79.3327 319.511C79.3377 319.585 79.3427 319.645 79.3477 319.686C79.3477 319.686 79.3604 319.688 79.3687 319.69C80.2535 319.887 128.197 330.528 132.166 327.091L132.168 327.089C132.168 327.089 132.168 327.019 132.167 326.889C132.167 326.803 132.167 326.688 132.166 326.549C132.162 325.172 132.149 321.176 132.131 315.171C132.052 288.608 131.869 222.66 131.835 169.215C131.83 162.433 131.828 155.854 131.829 149.581Z" fill="white"/>
<path d="M78.3228 141.319L22.3616 132.679V151.191L78.3871 160.415C78.3643 153.815 78.3432 147.419 78.3228 141.319Z" fill="#990000"/>
<path d="M220.129 163.213C220.75 172.597 220.847 178.937 220.847 178.937C220.847 178.937 201.568 175.63 192.525 179.206C192.524 179.207 192.524 179.207 192.523 179.207L225.478 184.633V164.04L220.129 163.213Z" fill="#990000"/>
<path d="M131.829 149.58C131.828 155.854 131.83 162.433 131.834 169.215L225.107 184.672C225.853 177.591 225.853 171.255 225.853 163.801L131.829 149.58Z" fill="#990000"/>
<path d="M132.832 325.943C132.831 325.858 132.831 325.742 132.83 325.603C132.826 324.226 132.813 320.23 132.796 314.225C132.795 313.985 132.794 313.751 132.793 313.503L79.7565 303.373C79.8253 310.695 79.8946 315.776 79.9632 317.813C79.9641 317.835 79.9646 317.856 79.9655 317.877C79.9695 317.995 79.9736 318.097 79.9777 318.193C79.979 318.225 79.9804 318.258 79.9818 318.288C79.9856 318.368 79.9892 318.436 79.9928 318.498C79.9942 318.52 79.9956 318.546 79.9969 318.565C80.0019 318.64 80.0069 318.7 80.0119 318.74C80.0119 318.74 80.0245 318.743 80.0329 318.744C80.9176 318.941 128.861 329.582 132.83 326.145C132.831 326.145 132.831 326.144 132.832 326.144C132.832 326.144 132.832 326.073 132.832 325.943Z" fill="#EBEBEB"/>
<path d="M289.671 329.002L341.215 320.039V308.035L289.847 316.741L289.671 329.002Z" fill="#EBEBEB"/>
<path d="M78.3013 159.513L22.3616 150.568V310.454L79.4277 318.653L78.3013 159.513Z" fill="#E10000"/>
<path d="M226.598 183.738L132.364 168.458L132.739 326.107L226.598 339.151V183.738Z" fill="#E10000"/>
<path d="M341.731 92.4246L293.526 97.4194V97.4206L292.663 157.408L341.731 152.295V92.4246Z" fill="white"/>
<path d="M293.31 97.2731L293.008 133.447L341.731 124.755V92.4281L293.31 97.2731Z" fill="#EBEBEB"/>
<path d="M156.159 95.7823L226.225 105.1V164.358L217.653 162.495L156.159 95.7823Z" fill="#E10000"/>
<path d="M163.613 86.465L133.424 92.4281L156.904 95.7823L163.613 86.465Z" fill="#CC0000"/>
<path d="M260.14 100.255L208.336 99.5093L209.827 102.864L226.225 105.1L260.14 101.373V100.255Z" fill="#CC0000"/>
<path d="M341.731 92.4247V152.18L392.556 146.766L400 145.973V86.3798L341.721 92.4231L341.731 92.4247Z" fill="#B80000"/>
<path d="M259.246 100.975L225.995 104.423V164.511L292.663 157.408L293.526 97.4203L293.523 97.4208C289.094 100.023 274.852 100.874 259.246 100.975Z" fill="#B80000"/>
<path d="M307.546 86.9581C307.601 86.8906 307.644 86.8224 307.698 86.7549C307.807 86.6174 307.906 86.4794 308.008 86.3414C308.2 86.0827 308.385 85.8235 308.552 85.5627C308.632 85.4374 308.705 85.3115 308.78 85.1857C308.945 84.9077 309.096 84.6286 309.231 84.3481C309.284 84.2373 309.333 84.1261 309.381 84.0149C309.511 83.7151 309.624 83.4138 309.717 83.1109C309.747 83.015 309.775 82.919 309.801 82.8229C309.888 82.5014 309.951 82.1777 309.995 81.8525C310.006 81.7705 310.018 81.6885 310.026 81.606C310.06 81.2644 310.066 80.92 310.049 80.5736C310.047 80.5287 310.055 80.4846 310.052 80.4397L310.043 80.4347C309.979 79.4902 309.747 78.5307 309.276 77.5488C308.416 75.7578 305.627 72.9047 301.56 69.5255C289.04 59.1243 264.345 43.7103 246.004 38.7117C230.876 34.591 212.86 41.7617 199.497 51.5951C199.489 51.601 199.481 51.6067 199.473 51.6126C199.314 51.7297 199.158 51.8487 199.001 51.9667C198.933 52.0177 198.867 52.0696 198.799 52.1205C198.436 52.3931 198.076 52.6666 197.721 52.9427C197.457 53.1478 197.197 53.354 196.938 53.5606C196.895 53.5943 196.852 53.6276 196.81 53.6614C196.859 52.9724 196.9 52.2891 196.931 51.6124C198.184 23.9896 184.28 6.66216 173.242 1.62795C161.333 -3.80366 136.19 6.09712 136.19 6.09712C95.5007 19.0089 98.4781 35.3971 98.4781 35.3971C97.9948 37.4123 98.0208 39.7027 98.4342 42.1409C87.9285 39.9034 79.0254 38.2203 73.6673 37.5231C51.8341 34.6832 20.5726 22.983 9.1598 24.9682C-2.2528 26.9549 0.227718 31.9214 0.227718 31.9214C12.1368 29.4385 54.8113 41.3554 78.6666 57.6774C81.9078 59.8948 86.239 61.8269 91.294 63.5137C97.7349 65.6631 105.356 67.4115 113.434 68.8325C114.283 69.7031 115.132 70.5049 115.97 71.2379C117.897 72.9215 119.77 74.2199 121.459 74.9693C122.766 75.5491 124.602 76.0494 126.783 76.4844C136.669 78.4557 153.865 79.0491 163.538 79.2265C162.386 80.8477 160.565 83.6184 158.585 87.4092C157.439 89.6053 156.243 92.1398 155.096 94.992C151.544 103.824 148.476 115.667 148.916 129.748C149.138 136.861 150.057 144.858 151.348 152.985C152.441 159.867 153.802 166.84 155.234 173.454C159.67 193.934 164.794 210.948 164.794 210.948C164.794 210.948 179.32 185.107 193.039 179.678L193.041 179.677C202.084 176.101 221.363 179.408 221.363 179.408C221.363 179.408 221.266 173.068 220.645 163.684C219.847 151.635 218.176 134.574 214.739 119.444C214.741 119.441 214.743 119.437 214.745 119.434C214.669 119.103 214.59 118.775 214.513 118.446C214.449 118.173 214.385 117.9 214.32 117.629C214.31 117.587 214.301 117.544 214.291 117.502C214.29 117.498 214.289 117.493 214.287 117.489C214.139 116.872 213.986 116.261 213.832 115.652C213.8 115.526 213.769 115.398 213.737 115.272C213.702 115.139 213.67 115.003 213.635 114.87C213.664 114.978 213.689 115.091 213.718 115.2C213.583 114.677 213.445 114.159 213.305 113.642C213.255 113.457 213.206 113.27 213.156 113.085C213.02 112.592 212.881 112.104 212.741 111.618C212.676 111.391 212.611 111.163 212.545 110.938C212.412 110.486 212.276 110.039 212.138 109.594C212.061 109.342 211.984 109.091 211.905 108.842C211.773 108.423 211.638 108.01 211.502 107.598C211.413 107.329 211.324 107.062 211.234 106.797C211.102 106.408 210.968 106.024 210.832 105.643C210.733 105.363 210.633 105.086 210.532 104.81C210.4 104.45 210.266 104.093 210.131 103.74C210.082 103.612 210.035 103.48 209.986 103.353C209.976 103.327 209.965 103.302 209.955 103.276C209.903 103.143 209.849 103.016 209.796 102.884C209.664 102.551 209.53 102.22 209.395 101.893C209.363 101.817 209.333 101.739 209.302 101.663C209.26 101.564 209.218 101.466 209.176 101.367C209.128 101.254 209.078 101.145 209.029 101.033C208.895 100.723 208.761 100.414 208.624 100.111C208.608 100.075 208.593 100.038 208.576 100.002C208.538 99.9186 208.502 99.8323 208.464 99.7494C208.527 99.7473 208.611 99.7469 208.708 99.7469C208.77 99.7471 208.848 99.748 208.924 99.7492C208.965 99.7496 209.001 99.7498 209.046 99.7507C209.153 99.7525 209.272 99.755 209.399 99.7582C209.421 99.7589 209.441 99.7591 209.463 99.7598C211.225 99.8049 214.873 99.9626 219.704 100.15C219.754 100.152 219.806 100.154 219.856 100.156C220.19 100.169 220.528 100.182 220.874 100.196C221.169 100.207 221.47 100.219 221.773 100.23C221.845 100.233 221.915 100.235 221.987 100.238C222.74 100.267 223.508 100.295 224.305 100.324L224.301 100.323C234.12 100.68 247.094 101.055 259.245 100.976C274.852 100.874 289.094 100.024 293.523 97.4214L293.525 97.4201C297.655 94.9913 301.401 92.5945 304.295 90.1576L304.308 90.1628C304.415 90.0727 304.509 89.9818 304.613 89.8912C304.834 89.7011 305.048 89.5106 305.257 89.3198C305.512 89.0876 305.757 88.8547 305.995 88.6213C306.185 88.4349 306.373 88.2479 306.551 88.0608C306.774 87.8272 306.982 87.5925 307.186 87.3578C307.302 87.2241 307.436 87.0918 307.546 86.9581Z" fill="#CC0000"/>
<path d="M246.191 51.3611C247.388 46.981 245.276 44.4242 243.52 43.1272C242.471 42.3521 241.552 42.0236 241.552 42.0236C227.697 38.8094 213.657 46.9529 203.047 55.9461C201.344 57.3897 199.742 58.8517 198.233 60.294C198.232 60.2945 198.231 60.2949 198.229 60.2956C190.642 67.5424 185.656 74.2387 185.167 74.9039C185.141 74.9395 185.119 74.9698 185.119 74.9698C185.144 74.9712 185.168 74.9723 185.194 74.9739C195.746 75.6085 204.431 75.4905 211.749 74.5077C222.706 73.0361 230.595 69.6216 237.066 63.8644C238.536 62.5565 239.932 61.1242 241.275 59.5702C241.367 59.4637 241.461 59.3615 241.552 59.2539C241.89 58.8574 242.205 58.4698 242.502 58.0903C242.751 57.7719 242.979 57.462 243.201 57.155C243.24 57.1015 243.285 57.0454 243.323 56.9921C243.833 56.2764 244.273 55.5915 244.65 54.9349C244.623 54.9309 244.591 54.9266 244.564 54.9227C244.586 54.9261 244.613 54.9297 244.636 54.9329C245.382 53.6306 245.898 52.436 246.191 51.3611Z" fill="#990000"/>
<path d="M243.52 43.1272C245.276 44.4243 247.388 46.981 246.191 51.3612C245.749 52.9802 244.858 54.8452 243.323 56.9921C243.285 57.0454 243.24 57.1016 243.201 57.155C242.978 57.4623 242.751 57.7715 242.501 58.0903C242.205 58.4698 241.889 58.8574 241.552 59.2539C241.461 59.3615 241.367 59.4637 241.275 59.5702C239.932 61.1242 238.536 62.5565 237.066 63.8645L304.308 90.1627C308.017 87.0443 310.283 83.855 310.052 80.4407L243.52 43.1272Z" fill="#CC0000"/>
<path d="M211.749 74.5072C204.431 75.49 195.746 75.6081 185.194 74.9735C185.168 74.9721 185.144 74.971 185.119 74.9694C185.119 74.9694 185.141 74.939 185.167 74.9035V74.9032C185.779 74.0706 192.817 64.6166 203.047 55.9456C201.839 54.1596 200.645 52.723 199.497 51.5952L199.497 51.5947C199.489 51.6006 199.481 51.6067 199.473 51.6126C199.245 51.7803 199.024 51.9513 198.799 52.1206C198.437 52.3931 198.076 52.6666 197.721 52.9428C197.458 53.1478 197.197 53.354 196.938 53.5606C196.896 53.5944 196.852 53.6277 196.811 53.6614C196.533 53.8835 196.261 54.1071 195.989 54.3309C195.742 54.5339 195.493 54.7365 195.251 54.9411C194.781 55.3371 194.319 55.7354 193.865 56.1362C193.633 56.3419 193.407 56.5485 193.179 56.7551C192.859 57.0447 192.542 57.3345 192.231 57.6258C192.008 57.8352 191.789 58.0452 191.57 58.2552C191.281 58.5339 190.996 58.813 190.715 59.0926C190.518 59.2895 190.318 59.4861 190.125 59.6832C189.698 60.1189 189.28 60.5553 188.876 60.9919C188.742 61.1364 188.616 61.2807 188.484 61.4253C188.168 61.7742 187.856 62.1228 187.555 62.4713C187.397 62.6539 187.244 62.8365 187.09 63.0191C186.824 63.335 186.565 63.6501 186.312 63.965C186.177 64.1327 186.041 64.3003 185.91 64.4678C185.547 64.932 185.194 65.3953 184.862 65.8555C184.82 65.913 184.783 65.9697 184.743 66.027C184.726 66.0505 184.71 66.0741 184.693 66.0977L184.693 66.0981V66.0974C184.683 66.111 184.675 66.1242 184.665 66.1378C184.396 66.5175 184.136 66.8952 183.889 67.2708C183.79 67.4201 183.697 67.568 183.602 67.7164C183.475 67.9147 183.346 68.1136 183.226 68.3105C183.16 68.4183 183.101 68.5241 183.037 68.6315C183.02 68.6601 183.004 68.6884 182.987 68.7172C182.904 68.8579 182.819 68.999 182.739 69.139C182.691 69.224 182.638 69.3101 182.591 69.3946C182.384 69.7646 182.189 70.1318 182.008 70.4957C182.008 70.4957 181.796 71.8295 182.074 73.9324C182.075 73.9351 182.075 73.9376 182.075 73.9403C182.075 73.941 182.075 73.9417 182.075 73.9426C182.481 76.9949 183.928 81.677 188.623 86.38C196.562 94.3319 204.483 99.8738 208.462 99.7494H208.464C208.528 99.7474 208.612 99.7469 208.708 99.7469C208.771 99.7472 208.848 99.7481 208.924 99.7492C208.965 99.7497 209.002 99.7499 209.046 99.7508C209.153 99.7526 209.272 99.7551 209.4 99.7583C209.422 99.7589 209.441 99.7592 209.464 99.7598C211.226 99.8049 214.873 99.9626 219.705 100.15C219.755 100.152 219.806 100.154 219.856 100.156C220.191 100.169 220.529 100.182 220.874 100.196C221.17 100.207 221.471 100.219 221.774 100.23C221.845 100.233 221.916 100.235 221.988 100.238C222.741 100.267 223.509 100.295 224.305 100.324C224.304 100.324 224.303 100.324 224.302 100.324C234.12 100.68 247.094 101.055 259.246 100.976C274.852 100.874 289.094 100.024 293.523 97.4215C293.524 97.4208 293.525 97.4206 293.526 97.4201C293.526 97.4195 224.751 93.9238 211.749 74.5072Z" fill="#CC0000"/>
<path d="M136.686 17.0235C127.069 13.7241 117.317 15.9222 110.01 20.6358C109.947 20.6761 109.884 20.716 109.821 20.7568C109.352 21.0643 108.894 21.3812 108.445 21.7086C108.313 21.8056 108.182 21.9039 108.051 22.0024C107.659 22.2979 107.275 22.5972 106.902 22.9069C106.72 23.0571 106.545 23.2121 106.368 23.3654C106.047 23.6439 105.727 23.9219 105.422 24.2101C105.189 24.4296 104.97 24.6569 104.745 24.8816C104.507 25.1218 104.262 25.3578 104.034 25.6037C103.587 26.0846 103.158 26.5747 102.755 27.0752C102.706 27.1361 102.655 27.1964 102.607 27.2578C102.421 27.4934 102.242 27.7315 102.066 27.971C101.984 28.0829 101.901 28.1944 101.821 28.307C101.671 28.5182 101.526 28.7304 101.384 28.9441C101.289 29.0877 101.195 29.2321 101.103 29.3768C100.979 29.5714 100.859 29.7667 100.742 29.9632C100.642 30.1308 100.547 30.2992 100.452 30.4682C100.35 30.6497 100.25 30.8311 100.154 31.0137C100.056 31.2018 99.9632 31.3907 99.8713 31.5799C99.7889 31.7494 99.7056 31.9186 99.6284 32.0888C99.5336 32.2981 99.4469 32.5086 99.3602 32.7191C99.297 32.8727 99.2304 33.0258 99.1713 33.1799C99.079 33.4216 98.997 33.6643 98.9155 33.9067C98.8732 34.0327 98.8256 34.1584 98.7863 34.2848C98.671 34.6548 98.5669 35.0257 98.4779 35.397C97.9946 37.4123 98.0206 39.7026 98.434 42.1409C107.509 44.0739 117.779 46.4209 128.006 48.9074C154.182 55.2722 180.046 62.5458 184.692 66.0974L184.692 66.0976C184.709 66.074 184.725 66.0505 184.742 66.0269C184.782 65.9696 184.82 65.913 184.861 65.8554C185.193 65.3953 185.546 64.9322 185.909 64.4677C186.007 64.3433 186.105 64.2187 186.205 64.0941C181.175 47.8906 153.353 22.7426 136.686 17.0235Z" fill="#B80000"/>
<path d="M214.291 117.503L214.291 117.503C214.29 117.498 214.289 117.494 214.288 117.489C214.14 116.872 213.987 116.261 213.832 115.653C213.8 115.526 213.769 115.399 213.737 115.273C213.596 114.725 213.451 114.183 213.306 113.643C213.255 113.457 213.206 113.27 213.156 113.086C213.021 112.592 212.881 112.105 212.741 111.618C212.676 111.391 212.612 111.164 212.545 110.938C212.412 110.486 212.276 110.039 212.139 109.594C212.061 109.343 211.984 109.091 211.906 108.842C211.773 108.424 211.638 108.01 211.502 107.598C211.414 107.33 211.325 107.062 211.235 106.797C211.102 106.409 210.968 106.024 210.832 105.643C210.733 105.364 210.633 105.086 210.532 104.811C210.4 104.45 210.266 104.094 210.131 103.741C210.082 103.613 210.035 103.48 209.986 103.354C209.976 103.327 209.965 103.302 209.955 103.276C209.904 103.144 209.849 103.016 209.797 102.885C209.664 102.552 209.53 102.22 209.395 101.894C209.363 101.818 209.333 101.739 209.302 101.664C209.26 101.565 209.218 101.467 209.176 101.368C209.128 101.254 209.078 101.146 209.03 101.034C208.896 100.723 208.761 100.415 208.625 100.111C208.608 100.075 208.593 100.038 208.577 100.002C208.539 99.9191 208.502 99.8328 208.464 99.7499H208.462C204.482 99.8742 196.562 94.3325 188.623 86.3804C183.928 81.6774 182.481 76.9953 182.075 73.943C182.075 73.9421 182.075 73.9415 182.075 73.9408C181.555 73.8576 181.013 73.8166 180.463 73.7935C180.428 73.7921 180.392 73.7921 180.357 73.791C179.198 73.7498 177.989 73.8189 176.771 73.984C175.307 75.9422 173.963 78.9943 173.406 83.7534C171.918 96.4801 180.849 152.219 188.789 151.663C194.723 151.245 207.864 131.388 214.745 119.435C214.597 118.786 214.445 118.144 214.291 117.503Z" fill="#B80000"/>
<path d="M188.789 173.948C192.758 172.458 175.772 170.472 170.374 164.511C160.505 153.613 153.061 122.799 153.061 122.799C153.061 122.799 150.58 131.117 153.061 142.352C155.542 153.587 161.497 203.744 165.963 199.274C170.428 194.805 184.819 175.437 188.789 173.948Z" fill="#E10000"/>
<path d="M193.993 171.962C193.993 171.962 213.108 173.451 215.835 171.962C218.562 170.471 214.745 134.6 214.745 134.6C214.745 134.6 204.066 165.746 193.993 171.962Z" fill="#E10000"/>
<path d="M98.9158 33.9069C98.9973 33.6643 99.0792 33.4216 99.1716 33.1801C99.2307 33.026 99.297 32.8729 99.3604 32.7193C99.4473 32.5088 99.534 32.2986 99.6286 32.089C99.7058 31.9188 99.7892 31.7496 99.8716 31.5801C99.9635 31.3909 100.056 31.202 100.155 31.0139C100.25 30.8313 100.351 30.6499 100.452 30.4684C100.547 30.2996 100.643 30.1313 100.742 29.9634C100.859 29.7669 100.979 29.5716 101.103 29.377C101.195 29.232 101.289 29.0879 101.385 28.9443C101.527 28.7307 101.671 28.5184 101.821 28.3072C101.901 28.1946 101.984 28.0831 102.066 27.9712C102.242 27.7317 102.421 27.4936 102.607 27.258C102.655 27.1966 102.706 27.1363 102.755 27.0754C109.706 18.4268 123.339 12.4444 136.686 17.0235C153.353 22.7426 181.175 47.8906 186.205 64.0943C186.239 64.0513 186.277 64.0082 186.311 63.9652C186.564 63.6503 186.823 63.3351 187.089 63.0193C187.243 62.8367 187.396 62.6545 187.554 62.4715C187.856 62.123 188.167 61.7743 188.484 61.4254C188.615 61.2809 188.742 61.1365 188.876 60.992C189.28 60.5554 189.697 60.1191 190.124 59.6834C190.318 59.486 190.517 59.2896 190.715 59.0927C190.996 58.8131 191.28 58.534 191.57 58.2553C191.788 58.0451 192.007 57.8355 192.23 57.626C192.541 57.3346 192.859 57.0451 193.178 56.7553C193.406 56.5487 193.632 56.342 193.865 56.1363C194.318 55.7358 194.78 55.3375 195.25 54.9412C195.493 54.7366 195.741 54.5343 195.988 54.3311C196.26 54.1072 196.533 53.8836 196.81 53.6616C196.859 52.9726 196.9 52.2893 196.93 51.6125C198.183 23.9898 184.28 6.66235 173.241 1.62813C161.333 -3.80348 136.189 6.0973 136.189 6.0973C95.5007 19.0089 98.4782 35.397 98.4782 35.397C98.5671 35.0257 98.6713 34.6548 98.7865 34.2848C98.8259 34.1586 98.8734 34.0329 98.9158 33.9069Z" fill="#E10000"/>
<path d="M113.434 68.8327C132.529 72.1917 154.144 73.7253 168.601 74.4163C170.285 74.4968 171.871 74.5661 173.345 74.6252C176.233 73.9267 179.398 73.499 182.073 73.9324C181.795 71.8297 182.007 70.4957 182.007 70.4957C182.189 70.1318 182.384 69.7646 182.59 69.3946C182.638 69.3098 182.69 69.224 182.739 69.139C182.818 68.999 182.903 68.8579 182.986 68.7172C183.003 68.6886 183.02 68.6601 183.036 68.6315C183.101 68.5241 183.159 68.4183 183.225 68.3105C183.346 68.1136 183.475 67.9147 183.601 67.7164C183.696 67.568 183.79 67.4199 183.888 67.2708C184.136 66.8951 184.395 66.5175 184.665 66.1377C184.674 66.1244 184.683 66.111 184.692 66.0974C180.047 62.5456 154.182 55.2723 128.006 48.9074C117.78 46.4209 107.51 44.0737 98.4342 42.1409C87.9285 39.9034 79.0254 38.2203 73.6673 37.5231C51.8341 34.6832 20.5726 22.983 9.1598 24.9682C-2.2528 26.9549 0.227718 31.9214 0.227718 31.9214C12.1368 29.4385 54.8113 41.3554 78.6666 57.6774C81.9078 59.8948 86.239 61.8269 91.294 63.5137C97.7349 65.6633 105.356 67.4119 113.434 68.8327Z" fill="#E10000"/>
<path d="M163.539 79.2274C153.865 79.0493 136.669 78.4559 126.783 76.4846L84.5017 83.8148C80.8746 84.6015 80.1292 84.6015 78.6668 84.826C78.6668 84.826 78.7318 108.971 78.8394 141.791L132.345 150.052C132.35 116.662 132.437 91.9808 132.684 92.0146L132.693 92.0127L158.586 87.4101C160.565 83.6193 162.387 80.8487 163.539 79.2274Z" fill="white"/>
<path d="M132.684 92.0138C132.437 91.9801 132.35 116.661 132.345 150.052L151.349 152.986C150.057 144.858 149.138 136.861 148.916 129.748C148.476 115.668 151.544 103.824 155.096 94.9922L132.693 92.012L132.684 92.0138Z" fill="#E10000"/>
<path d="M78.6666 84.8264L78.6668 84.8257L16.9233 76.6126V132.231L22.8779 133.151L78.8391 141.791C78.7318 108.971 78.6666 84.8264 78.6666 84.8264Z" fill="#E10000"/>
<path d="M84.5017 83.8148L126.783 76.4846C124.602 76.0496 122.766 75.5493 121.459 74.9696C119.77 74.2201 117.897 72.9217 115.97 71.2381L78.6718 65.7383L16.923 76.6126L78.6666 84.8257C80.8746 84.6015 80.8746 84.6015 84.5017 83.8148Z" fill="#CC0000"/>
<path d="M126.716 76.4023L78.6384 84.9742L132.679 92.0554L158.768 87.2104C160.631 84.4773 164.134 79.0857 163.24 79.3838C162.345 79.682 138.518 77.5204 126.716 76.4023Z" fill="#EBEBEB"/>
<path d="M309.276 77.5493C310.873 80.8788 309.997 83.9716 307.546 86.9582L341.721 92.4231L400 86.38L301.56 69.5262C305.627 72.9052 308.416 75.7583 309.276 77.5493Z" fill="#CC0000"/>
<path d="M113.434 68.8326C105.356 67.4116 97.7349 65.6633 91.294 63.5139L78.6666 65.7376L78.6718 65.7382L115.97 71.2383C115.132 70.5053 114.283 69.7033 113.434 68.8326Z" fill="#EBEBEB"/>
<path d="M128.006 48.9076C127.924 48.7078 127.83 48.5121 127.754 48.3097C122.668 34.7344 127.053 23.2612 132.051 15.8905C120.275 13.911 108.903 19.4441 102.755 27.0754C102.706 27.1364 102.655 27.1966 102.607 27.258C102.421 27.4934 102.243 27.7322 102.066 27.9713C101.984 28.0832 101.901 28.1946 101.821 28.3072C101.671 28.5182 101.527 28.7309 101.385 28.9443C101.289 29.088 101.195 29.2323 101.103 29.3771C100.979 29.5715 100.859 29.767 100.742 29.9634C100.643 30.1311 100.547 30.2994 100.452 30.4684C100.351 30.6499 100.25 30.8314 100.155 31.014C100.056 31.202 99.9635 31.391 99.8716 31.5802C99.7889 31.7494 99.7059 31.9189 99.6287 32.089C99.5338 32.2984 99.4471 32.5088 99.3604 32.7193C99.2972 32.8727 99.2307 33.0261 99.1716 33.1801C99.0792 33.4219 98.9973 33.6645 98.9158 33.907C98.8734 34.0329 98.8259 34.1589 98.7865 34.2851C98.6713 34.6551 98.5671 35.0259 98.4782 35.3973C97.9948 37.4126 98.0209 39.7029 98.4342 42.1411C107.509 44.0739 117.779 46.4209 128.006 48.9076Z" fill="#990000"/>
<path d="M182.075 73.9424C182.48 76.9946 183.927 81.6768 188.623 86.3797C196.562 94.3316 204.482 99.8736 208.461 99.7492H208.464C208.527 99.7472 208.611 99.7467 208.707 99.7467C208.769 99.7469 208.848 99.7478 208.924 99.749C208.965 99.7494 209.001 99.7496 209.046 99.7505C209.151 99.7524 209.273 99.7551 209.399 99.758C209.421 99.7587 209.441 99.7589 209.463 99.7596C211.223 99.804 214.864 99.9615 219.704 100.15C219.754 100.152 219.805 100.154 219.856 100.156C220.188 100.169 220.53 100.182 220.873 100.196C221.169 100.207 221.47 100.218 221.773 100.23C221.844 100.232 221.916 100.235 221.987 100.238C222.74 100.266 223.508 100.295 224.305 100.324C224.304 100.324 224.302 100.324 224.301 100.323C217.011 99.256 204.868 96.5805 198.216 90.1626C191.485 83.6705 186.93 80.1187 185.193 74.9739C185.168 74.9726 185.143 74.9714 185.118 74.9698C185.118 74.9698 185.14 74.9395 185.166 74.9039C184.363 72.4813 184.178 69.705 184.692 66.0983C184.692 66.0983 184.692 66.0979 184.692 66.0977C184.682 66.1112 184.674 66.1244 184.664 66.138C184.144 66.87 183.663 67.5952 183.224 68.3107C183.159 68.4186 183.1 68.5244 183.036 68.6318C182.884 68.8869 182.731 69.1422 182.589 69.3946C182.383 69.7646 182.188 70.1318 182.006 70.4957C182.006 70.4957 181.795 71.8295 182.073 73.9324C182.073 73.9351 182.073 73.9376 182.074 73.9403C182.075 73.9408 182.075 73.9417 182.075 73.9424Z" fill="#B80000"/>
<path d="M242.501 58.09C242.205 58.4695 241.889 58.8571 241.552 59.2536C241.461 59.3612 241.367 59.4634 241.275 59.5699L307.909 86.4828C308.956 85.1048 309.641 83.6983 309.914 82.2576L246.191 51.3611C245.749 52.9801 244.858 54.8452 243.323 56.9921C243.285 57.0453 243.24 57.1015 243.201 57.155C242.978 57.4622 242.751 57.7714 242.501 58.09Z" fill="#E10000"/>
<path d="M293.181 121.384L341.731 113.984V102.392L293.323 111.515L293.181 121.384Z" fill="#D6D6D6"/>
<path d="M241.275 59.5699C241.367 59.4634 241.461 59.3612 241.552 59.2536C241.889 58.8571 242.205 58.4697 242.501 58.09C242.75 57.7717 242.979 57.4617 243.201 57.1547C243.24 57.1013 243.285 57.0451 243.323 56.9919C243.833 56.2761 244.272 55.5912 244.649 54.9347C238.733 54.0585 219.748 52.2166 198.229 60.2951C190.642 67.542 185.656 74.2382 185.167 74.9034C185.141 74.939 185.119 74.9693 185.119 74.9693C185.144 74.9707 185.168 74.9718 185.194 74.9734C195.746 75.608 204.431 75.49 211.749 74.5072C222.706 73.0356 230.595 69.6211 237.066 63.8639C238.536 62.5562 239.932 61.1239 241.275 59.5699Z" fill="#7A0000"/>
</svg>
