<svg width="71" height="36" viewBox="0 0 71 36" fill="none" xmlns="http://www.w3.org/2000/svg">
<path d="M17.7018 0.0144272C21.021 0.0453354 24.6928 0.0877794 27.989 0C26.3471 1.56038 24.8611 3.22476 23.2051 4.78638C20.1617 7.65604 17.2476 10.6181 14.1942 13.4864C19.6886 13.3331 51.2063 13.453 56.7491 13.4625C52.0968 9.06408 47.523 4.58499 43.0295 0.0273361L53.2513 0.0212936C55.0141 1.55723 56.9656 3.65226 58.6743 5.33476L70.9568 17.5619C69.6485 18.7378 68.3568 20.177 67.0814 21.4281L57.761 30.5847C56.1786 32.144 54.7717 33.8942 52.9853 35.1983C49.6662 35.196 46.2116 35.1462 42.9036 35.2466C46.9263 30.7971 52.3544 26.0398 56.6904 21.7573C50.9811 21.7083 19.956 21.8087 14.2458 21.7211C18.8145 26.2004 23.6619 30.5486 28.0802 35.2221C24.891 35.1111 21.148 35.1983 17.9172 35.1962L17.8618 35.153C16.2406 33.8598 15.2577 32.645 13.7933 31.1856L4.67426 22.1925C3.3799 20.9109 1.30419 18.6445 0 17.5917C3.79033 13.7396 7.61628 9.92209 11.4773 6.13961C13.5239 4.1178 15.5774 1.93225 17.7018 0.0144272Z" fill="white"/>
</svg>
