<svg width="20" height="20" viewBox="0 0 20 20" fill="none" xmlns="http://www.w3.org/2000/svg">
<path d="M18.3334 6.66669H1.66675V8.33335H18.3334V6.66669Z" fill="#767676"/>
<path d="M18.3334 11.6667H1.66675V13.3334H18.3334V11.6667Z" fill="#767676"/>
<path d="M4.16659 5H3.74992C3.5198 5 3.33325 5.18655 3.33325 5.41667V14.5833C3.33325 14.8135 3.5198 15 3.74992 15H4.16659C4.3967 15 4.58325 14.8135 4.58325 14.5833V5.41667C4.58325 5.18655 4.3967 5 4.16659 5Z" fill="#8B4513"/>
<path d="M8.33333 5H7.91667C7.68655 5 7.5 5.18655 7.5 5.41667V14.5833C7.5 14.8135 7.68655 15 7.91667 15H8.33333C8.56345 15 8.75 14.8135 8.75 14.5833V5.41667C8.75 5.18655 8.56345 5 8.33333 5Z" fill="#8B4513"/>
<path d="M12.0833 5H11.6667C11.4365 5 11.25 5.18655 11.25 5.41667V14.5833C11.25 14.8135 11.4365 15 11.6667 15H12.0833C12.3135 15 12.5 14.8135 12.5 14.5833V5.41667C12.5 5.18655 12.3135 5 12.0833 5Z" fill="#8B4513"/>
<path d="M16.2501 5H15.8334C15.6033 5 15.4167 5.18655 15.4167 5.41667V14.5833C15.4167 14.8135 15.6033 15 15.8334 15H16.2501C16.4802 15 16.6667 14.8135 16.6667 14.5833V5.41667C16.6667 5.18655 16.4802 5 16.2501 5Z" fill="#8B4513"/>
</svg>
