<svg width="437" height="344" viewBox="0 0 437 344" fill="none" xmlns="http://www.w3.org/2000/svg">
<path d="M348.601 211.601L301.936 198.521L301.935 198.523L279.076 253.991L326.587 267.278L348.601 211.601Z" fill="white"/>
<path d="M301.789 198.306L288.207 231.835L336.713 241.667L348.6 211.604L301.789 198.306Z" fill="#EBEBEB"/>
<path d="M174.793 146.491L236.526 180.918L214.737 236.025L207.451 231.14L174.793 146.491Z" fill="#E10000"/>
<path d="M185.151 140.567L154.885 135.012L175.487 146.765L185.151 140.567Z" fill="#CC0000"/>
<path d="M269.847 188.883L221.945 169.142L222.098 172.809L236.526 180.918L269.435 189.922L269.847 188.883Z" fill="#CC0000"/>
<path d="M348.601 211.601L326.629 267.171L375.885 280.823L383.099 282.823L405.011 227.405L348.592 211.596L348.601 211.601Z" fill="#B80000"/>
<path d="M268.75 189.224L236.56 180.204L214.467 236.082L279.076 253.99L301.935 198.522L301.933 198.522C296.857 199.313 283.3 194.868 268.75 189.224Z" fill="#B80000"/>
<path d="M318.82 193.948C318.897 193.906 318.962 193.858 319.037 193.815C319.189 193.727 319.331 193.635 319.477 193.545C319.751 193.375 320.018 193.201 320.269 193.02C320.39 192.933 320.504 192.843 320.619 192.753C320.875 192.556 321.119 192.352 321.347 192.141C321.437 192.057 321.523 191.971 321.609 191.886C321.841 191.655 322.056 191.416 322.254 191.169C322.317 191.091 322.378 191.011 322.438 190.932C322.637 190.665 322.815 190.387 322.975 190.101C323.015 190.028 323.057 189.957 323.095 189.883C323.252 189.578 323.384 189.259 323.496 188.931C323.51 188.889 323.534 188.851 323.548 188.808L323.541 188.8C323.829 187.898 323.966 186.92 323.889 185.834C323.748 183.852 322.203 180.173 319.663 175.536C311.845 161.26 294.548 137.845 279.329 126.453C266.776 117.058 247.385 117.102 231.343 121.334C231.333 121.336 231.324 121.339 231.314 121.341C231.123 121.392 230.935 121.445 230.745 121.497C230.663 121.519 230.582 121.543 230.501 121.566C230.063 121.686 229.627 121.808 229.196 121.934C228.875 122.028 228.557 122.124 228.24 122.221C228.189 122.236 228.136 122.251 228.085 122.267C228.384 121.645 228.673 121.024 228.95 120.406C240.272 95.1793 233.713 73.9534 225.299 65.2132C216.222 55.7833 189.2 55.7456 189.2 55.7456C146.613 52.7919 143.357 69.1269 143.357 69.1269C142.166 70.8232 141.348 72.9627 140.836 75.3821C131.889 69.4385 124.228 64.5997 119.502 61.9813C100.242 51.3124 75.4729 28.9374 64.1297 26.5871C52.786 24.2383 53.2667 29.769 53.2667 29.769C65.2544 31.8388 100.558 58.612 116.741 82.562C118.939 85.8157 122.257 89.2051 126.337 92.6323C131.537 96.9994 137.982 101.428 144.971 105.719C145.441 106.841 145.935 107.899 146.445 108.889C147.618 111.163 148.882 113.059 150.178 114.377C151.18 115.397 152.703 116.537 154.571 117.743C163.04 123.212 178.813 130.086 187.743 133.808C186.076 134.892 183.363 136.799 180.129 139.596C178.255 141.217 176.211 143.134 174.096 145.365C167.545 152.272 160.337 162.158 155.569 175.414C153.16 182.11 151.075 189.885 149.287 197.918C147.773 204.719 146.474 211.704 145.375 218.381C141.969 239.058 140.479 256.764 140.479 256.764C140.479 256.764 163.489 238.074 178.242 238.07L178.245 238.07C187.97 238.069 204.682 248.234 204.682 248.234C204.682 248.234 206.923 242.302 209.796 233.347C213.484 221.848 218.203 205.368 220.57 190.034C220.573 190.032 220.576 190.029 220.579 190.027C220.631 189.691 220.677 189.357 220.726 189.023C220.767 188.746 220.809 188.468 220.848 188.192C220.854 188.149 220.861 188.106 220.867 188.063C220.868 188.059 220.868 188.054 220.869 188.05C220.958 187.421 221.041 186.797 221.121 186.175C221.138 186.045 221.155 185.915 221.172 185.786C221.189 185.649 221.209 185.511 221.226 185.374C221.212 185.486 221.194 185.6 221.181 185.712C221.248 185.176 221.31 184.643 221.37 184.112C221.392 183.921 221.415 183.729 221.435 183.539C221.491 183.03 221.541 182.525 221.59 182.022C221.612 181.787 221.636 181.551 221.657 181.317C221.7 180.848 221.737 180.382 221.773 179.918C221.794 179.656 221.815 179.393 221.833 179.133C221.864 178.695 221.89 178.261 221.915 177.828C221.932 177.545 221.947 177.264 221.961 176.984C221.981 176.574 221.997 176.168 222.011 175.763C222.022 175.467 222.031 175.172 222.038 174.878C222.048 174.495 222.054 174.114 222.059 173.736C222.06 173.599 222.065 173.459 222.066 173.323C222.066 173.295 222.066 173.267 222.066 173.24C222.067 173.097 222.063 172.959 222.062 172.817C222.062 172.458 222.059 172.101 222.053 171.748C222.052 171.665 222.053 171.582 222.051 171.5C222.049 171.392 222.046 171.286 222.043 171.179C222.04 171.055 222.034 170.936 222.03 170.813C222.019 170.476 222.008 170.139 221.992 169.807C221.99 169.768 221.99 169.727 221.988 169.688C221.983 169.597 221.981 169.503 221.976 169.412C222.035 169.433 222.114 169.464 222.203 169.499C222.261 169.522 222.333 169.552 222.404 169.581C222.442 169.596 222.475 169.61 222.517 169.627C222.615 169.668 222.725 169.714 222.843 169.764C222.863 169.773 222.881 169.78 222.901 169.789C224.524 170.479 227.858 171.967 232.281 173.918C232.327 173.938 232.374 173.959 232.42 173.979C232.726 174.114 233.036 174.25 233.352 174.39C233.623 174.509 233.899 174.63 234.176 174.752C234.242 174.781 234.306 174.81 234.372 174.839C235.062 175.142 235.766 175.451 236.496 175.771L236.493 175.769C245.493 179.71 257.42 184.829 268.749 189.224C283.3 194.868 296.857 199.314 301.932 198.522L301.935 198.522C306.669 197.782 311.033 196.93 314.62 195.728L314.631 195.738C314.764 195.693 314.884 195.643 315.015 195.597C315.29 195.502 315.559 195.403 315.824 195.303C316.146 195.181 316.459 195.054 316.766 194.924C317.012 194.821 317.255 194.716 317.49 194.608C317.783 194.473 318.062 194.331 318.338 194.187C318.496 194.106 318.669 194.032 318.82 193.948Z" fill="#CC0000"/>
<path d="M274.852 138.285C277.576 134.652 276.552 131.498 275.396 129.646C274.705 128.539 273.972 127.896 273.972 127.896C262.268 119.812 246.218 122.223 233.045 126.685C230.93 127.401 228.902 128.172 226.969 128.959C226.968 128.959 226.967 128.959 226.965 128.959C217.244 132.908 210.146 137.302 209.446 137.741C209.409 137.764 209.377 137.784 209.377 137.784C209.4 137.795 209.423 137.805 209.446 137.816C219.026 142.286 227.145 145.369 234.312 147.146C245.042 149.806 253.634 149.532 261.769 146.557C263.617 145.881 265.441 145.063 267.262 144.111C267.387 144.046 267.512 143.986 267.636 143.919C268.096 143.675 268.531 143.43 268.947 143.186C269.295 142.982 269.622 142.778 269.942 142.574C269.997 142.538 270.059 142.503 270.114 142.467C270.852 141.989 271.513 141.514 272.105 141.042C272.081 141.028 272.053 141.012 272.029 140.999C272.049 141.01 272.073 141.024 272.093 141.035C273.265 140.098 274.184 139.177 274.852 138.285Z" fill="#990000"/>
<path d="M275.396 129.646C276.552 131.498 277.576 134.652 274.852 138.285C273.846 139.628 272.331 141.035 270.114 142.467C270.059 142.502 269.997 142.538 269.941 142.574C269.621 142.777 269.296 142.982 268.947 143.186C268.531 143.43 268.095 143.675 267.636 143.919C267.511 143.986 267.387 144.046 267.262 144.111C265.441 145.063 263.616 145.881 261.769 146.557L314.631 195.738C319.227 194.201 322.506 192.069 323.547 188.809L275.396 129.646Z" fill="#CC0000"/>
<path d="M234.312 147.146C227.145 145.369 219.026 142.286 209.446 137.815C209.423 137.805 209.401 137.795 209.377 137.784C209.377 137.784 209.409 137.764 209.447 137.74L209.447 137.74C210.322 137.191 220.343 130.987 233.045 126.685C232.578 124.58 231.996 122.805 231.343 121.334L231.343 121.333C231.333 121.336 231.324 121.339 231.314 121.341C231.041 121.413 230.772 121.491 230.501 121.566C230.064 121.686 229.628 121.808 229.196 121.934C228.876 122.028 228.557 122.124 228.241 122.221C228.189 122.237 228.136 122.252 228.085 122.268C227.745 122.372 227.41 122.48 227.074 122.588C226.77 122.686 226.465 122.783 226.164 122.884C225.581 123.079 225.005 123.28 224.436 123.486C224.144 123.592 223.858 123.701 223.57 123.809C223.167 123.961 222.765 124.114 222.369 124.27C222.084 124.383 221.803 124.498 221.523 124.613C221.151 124.765 220.784 124.92 220.42 125.077C220.164 125.188 219.906 125.297 219.654 125.409C219.096 125.658 218.548 125.91 218.011 126.167C217.833 126.252 217.663 126.34 217.487 126.426C217.064 126.634 216.647 126.844 216.239 127.057C216.025 127.169 215.815 127.282 215.605 127.396C215.241 127.591 214.884 127.789 214.533 127.989C214.346 128.096 214.158 128.201 213.975 128.309C213.466 128.607 212.968 128.908 212.49 129.214C212.43 129.252 212.375 129.291 212.316 129.33C212.291 129.345 212.268 129.362 212.244 129.377L212.243 129.378L212.244 129.377C212.23 129.386 212.217 129.395 212.203 129.404C211.813 129.658 211.433 129.914 211.064 130.172C210.918 130.275 210.777 130.378 210.634 130.481C210.443 130.619 210.25 130.757 210.065 130.895C209.965 130.972 209.871 131.048 209.772 131.125C209.746 131.145 209.72 131.165 209.694 131.186C209.565 131.286 209.434 131.386 209.308 131.487C209.232 131.548 209.151 131.609 209.077 131.67C208.749 131.938 208.432 132.208 208.129 132.48C208.129 132.48 207.442 133.642 206.927 135.7C206.927 135.703 206.926 135.705 206.926 135.708C206.926 135.709 206.925 135.709 206.925 135.71C206.18 138.698 205.804 143.584 208.441 149.684C212.9 159.998 218.228 168.064 221.974 169.411L221.976 169.412C222.036 169.433 222.114 169.464 222.204 169.499C222.262 169.523 222.334 169.552 222.404 169.581C222.442 169.596 222.476 169.61 222.517 169.627C222.616 169.668 222.726 169.714 222.843 169.764C222.863 169.773 222.881 169.78 222.902 169.789C224.524 170.479 227.858 171.967 232.282 173.918C232.327 173.938 232.375 173.959 232.421 173.979C232.727 174.114 233.036 174.251 233.353 174.39C233.623 174.509 233.899 174.631 234.177 174.753C234.242 174.781 234.307 174.81 234.373 174.839C235.062 175.142 235.766 175.451 236.496 175.771C236.495 175.771 236.494 175.77 236.493 175.769C245.493 179.711 257.42 184.83 268.75 189.224C283.3 194.868 296.857 199.314 301.933 198.522C301.934 198.522 301.935 198.522 301.936 198.522C301.936 198.521 239.264 169.983 234.312 147.146Z" fill="#CC0000"/>
<path d="M185.644 66.0891C177.913 59.4846 168.037 57.9432 159.508 59.6398C159.435 59.6542 159.362 59.6681 159.288 59.683C158.739 59.7963 158.196 59.9225 157.659 60.0622C157.499 60.1035 157.342 60.1468 157.184 60.1903C156.711 60.3212 156.243 60.458 155.782 60.6088C155.558 60.6817 155.339 60.7616 155.118 60.8391C154.717 60.9801 154.317 61.121 153.927 61.2767C153.63 61.3952 153.342 61.5258 153.051 61.6523C152.741 61.7879 152.426 61.9174 152.124 62.0622C151.531 62.3452 150.953 62.6433 150.394 62.9605C150.326 62.9991 150.256 63.0365 150.189 63.0758C149.929 63.2266 149.675 63.3822 149.424 63.5403C149.306 63.614 149.188 63.6873 149.072 63.7626C148.855 63.9038 148.643 64.0481 148.432 64.1945C148.29 64.2929 148.149 64.3925 148.011 64.4933C147.824 64.6289 147.641 64.7663 147.46 64.9061C147.305 65.0253 147.155 65.1466 147.004 65.269C146.843 65.4004 146.683 65.5322 146.527 65.6669C146.366 65.8056 146.211 65.9472 146.056 66.0894C145.917 66.2167 145.777 66.3434 145.643 66.4733C145.477 66.6331 145.319 66.7969 145.161 66.9608C145.046 67.0804 144.928 67.1983 144.816 67.3199C144.642 67.5107 144.476 67.7062 144.311 67.9017C144.226 68.0033 144.135 68.1027 144.052 68.2058C143.809 68.5075 143.576 68.8141 143.356 69.1267C142.166 70.8231 141.348 72.9626 140.836 75.382C148.565 80.5166 157.252 86.4753 165.848 92.5479C187.85 108.092 209.228 124.366 212.243 129.377L212.243 129.377C212.267 129.361 212.29 129.345 212.315 129.329C212.374 129.291 212.429 129.252 212.489 129.214C212.967 128.908 213.465 128.607 213.974 128.309C214.11 128.229 214.248 128.149 214.386 128.07C215.666 111.152 199.04 77.5358 185.644 66.0891Z" fill="#B80000"/>
<path d="M220.867 188.064L220.867 188.064C220.868 188.06 220.868 188.055 220.869 188.05C220.958 187.422 221.041 186.798 221.121 186.175C221.138 186.046 221.156 185.915 221.172 185.786C221.242 185.225 221.307 184.668 221.37 184.112C221.392 183.921 221.415 183.729 221.436 183.539C221.491 183.031 221.541 182.526 221.59 182.022C221.613 181.787 221.636 181.552 221.657 181.318C221.7 180.848 221.737 180.383 221.773 179.918C221.794 179.656 221.815 179.394 221.833 179.133C221.864 178.695 221.89 178.261 221.916 177.828C221.932 177.546 221.947 177.264 221.961 176.985C221.981 176.575 221.997 176.168 222.011 175.764C222.022 175.467 222.031 175.172 222.038 174.879C222.048 174.495 222.054 174.115 222.059 173.736C222.06 173.599 222.065 173.459 222.066 173.323C222.066 173.295 222.066 173.268 222.066 173.24C222.067 173.098 222.063 172.959 222.062 172.818C222.062 172.459 222.059 172.102 222.053 171.748C222.052 171.666 222.053 171.582 222.051 171.5C222.049 171.393 222.046 171.286 222.043 171.179C222.04 171.056 222.034 170.936 222.03 170.814C222.019 170.476 222.008 170.14 221.992 169.807C221.99 169.768 221.99 169.728 221.988 169.689C221.983 169.597 221.981 169.503 221.976 169.412L221.974 169.411C218.227 168.064 212.9 159.998 208.441 149.684C205.803 143.584 206.179 138.698 206.925 135.71C206.925 135.71 206.925 135.709 206.925 135.708C206.472 135.44 205.983 135.202 205.48 134.978C205.448 134.964 205.415 134.951 205.382 134.937C204.32 134.473 203.17 134.093 201.976 133.798C199.895 135.081 197.523 137.425 195.255 141.646C189.192 152.934 177.003 208.053 184.591 210.454C190.263 212.248 209.785 198.613 220.579 190.028C220.68 189.37 220.775 188.717 220.867 188.064Z" fill="#B80000"/>
<path d="M176.397 231.178C180.636 231.252 165.571 223.16 162.742 215.631C157.571 201.869 161.979 170.476 161.979 170.476C161.979 170.476 156.613 177.299 154.79 188.659C152.966 200.019 140.062 248.852 145.858 246.338C151.654 243.824 172.158 231.104 176.397 231.178Z" fill="#E10000"/>
<path d="M181.967 231.245C181.967 231.245 199.195 239.659 202.279 239.276C205.362 238.893 215.003 204.131 215.003 204.131C215.003 204.131 193.62 229.168 181.967 231.245Z" fill="#E10000"/>
<path d="M144.311 67.902C144.476 67.7064 144.642 67.5108 144.817 67.3202C144.928 67.1987 145.046 67.0806 145.162 66.9611C145.32 66.7973 145.478 66.6337 145.643 66.4736C145.777 66.3437 145.917 66.217 146.056 66.0897C146.211 65.9475 146.366 65.8059 146.527 65.6672C146.683 65.5325 146.843 65.4007 147.005 65.2693C147.155 65.1472 147.306 65.0258 147.46 64.9064C147.641 64.7666 147.824 64.6292 148.011 64.4937C148.15 64.3926 148.29 64.2932 148.432 64.1949C148.643 64.0484 148.855 63.9041 149.072 63.7629C149.188 63.6876 149.306 63.6144 149.424 63.5406C149.675 63.3826 149.929 63.2268 150.189 63.0761C150.256 63.0368 150.326 62.9994 150.394 62.9608C160.038 57.4739 174.915 56.9231 185.644 66.0891C199.04 77.5358 215.666 111.152 214.386 128.07C214.434 128.043 214.485 128.016 214.533 127.989C214.883 127.789 215.24 127.591 215.604 127.396C215.814 127.282 216.023 127.169 216.238 127.057C216.647 126.844 217.064 126.634 217.487 126.426C217.662 126.34 217.833 126.252 218.011 126.167C218.547 125.91 219.096 125.657 219.653 125.409C219.905 125.297 220.163 125.187 220.419 125.077C220.783 124.92 221.15 124.765 221.522 124.613C221.803 124.498 222.083 124.383 222.368 124.27C222.764 124.114 223.166 123.961 223.57 123.809C223.858 123.701 224.144 123.592 224.435 123.486C225.004 123.28 225.58 123.08 226.163 122.884C226.464 122.783 226.769 122.686 227.074 122.588C227.409 122.48 227.745 122.372 228.084 122.268C228.383 121.645 228.672 121.024 228.95 120.406C240.272 95.1793 233.713 73.9534 225.299 65.2132C216.222 55.7833 189.199 55.7457 189.199 55.7457C146.613 52.7919 143.357 69.1269 143.357 69.1269C143.576 68.8142 143.809 68.5076 144.052 68.2059C144.135 68.1031 144.226 68.0036 144.311 67.902Z" fill="#E10000"/>
<path d="M144.971 105.719C161.493 115.864 181.03 125.238 194.221 131.196C195.756 131.89 197.206 132.538 198.555 133.135C201.498 133.547 204.599 134.313 206.927 135.7C207.441 133.642 208.129 132.479 208.129 132.479C208.431 132.208 208.748 131.938 209.076 131.67C209.151 131.609 209.231 131.548 209.308 131.487C209.433 131.386 209.564 131.286 209.693 131.186C209.72 131.165 209.745 131.145 209.771 131.124C209.871 131.048 209.964 130.971 210.065 130.895C210.249 130.756 210.443 130.619 210.633 130.481C210.776 130.378 210.917 130.275 211.064 130.172C211.432 129.914 211.812 129.658 212.202 129.404C212.216 129.395 212.229 129.386 212.243 129.377C209.229 124.365 187.851 108.092 165.848 92.548C157.253 86.4754 148.565 80.5165 140.836 75.3821C131.889 69.4385 124.228 64.5997 119.502 61.9813C100.242 51.3124 75.4729 28.9374 64.1296 26.5871C52.786 24.2383 53.2666 29.769 53.2666 29.769C65.2544 31.8388 100.558 58.612 116.741 82.562C118.939 85.8157 122.257 89.2051 126.337 92.6323C131.537 96.9996 137.981 101.428 144.971 105.719Z" fill="#E10000"/>
<path d="M187.744 133.809C178.813 130.086 163.04 123.212 154.571 117.744L112.556 109.014C108.894 108.412 108.201 108.138 106.759 107.809C106.759 107.809 97.941 130.286 85.9735 160.847L132.694 188.203C144.976 157.153 154.131 134.233 154.349 134.355L154.358 134.357L180.129 139.597C183.364 136.8 186.076 134.893 187.744 133.809Z" fill="white"/>
<path d="M154.349 134.355C154.132 134.233 144.976 157.152 132.694 188.202L149.287 197.918C151.075 189.885 153.16 182.111 155.569 175.414C160.338 162.158 167.545 152.272 174.096 145.365L154.358 134.356L154.349 134.355Z" fill="#E10000"/>
<path d="M106.758 107.809L106.759 107.809L52.3601 77.4683L31.9098 129.191L37.1092 132.235L85.9733 160.846C97.9411 130.286 106.758 107.809 106.758 107.809Z" fill="#E10000"/>
<path d="M112.556 109.014L154.571 117.744C152.702 116.537 151.18 115.397 150.177 114.377C148.882 113.059 147.618 111.163 146.445 108.889L113.781 90.06L52.3599 77.4682L106.758 107.808C108.894 108.412 108.894 108.412 112.556 109.014Z" fill="#CC0000"/>
<path d="M154.539 117.642L106.678 107.936L154.329 134.392L180.371 139.478C183.109 137.622 188.35 133.896 187.408 133.845C186.467 133.793 165.103 123.022 154.539 117.642Z" fill="#EBEBEB"/>
<path d="M323.889 185.834C324.15 189.518 322.197 192.072 318.82 193.948L348.592 211.596L405.01 227.405L319.663 175.536C322.203 180.174 323.748 183.853 323.889 185.834Z" fill="#CC0000"/>
<path d="M144.971 105.719C137.982 101.428 131.537 96.9996 126.337 92.6325L113.777 90.0575L113.782 90.06L146.445 108.889C145.934 107.899 145.44 106.841 144.971 105.719Z" fill="#EBEBEB"/>
<path d="M165.848 92.5482C165.845 92.332 165.83 92.1155 165.834 91.8995C166.096 77.405 174.392 68.3478 181.75 63.3312C171.527 57.1604 158.917 58.1246 150.394 62.9608C150.326 62.9994 150.256 63.0368 150.189 63.0761C149.929 63.2265 149.676 63.3831 149.424 63.5406C149.306 63.6144 149.188 63.6876 149.072 63.7629C148.855 63.9038 148.643 64.0486 148.432 64.1949C148.29 64.2932 148.15 64.3928 148.011 64.4936C147.824 64.629 147.641 64.7667 147.46 64.9064C147.306 65.0256 147.155 65.1469 147.005 65.2693C146.843 65.4007 146.683 65.5325 146.527 65.6672C146.366 65.8059 146.211 65.9475 146.056 66.0897C145.917 66.2167 145.777 66.3437 145.643 66.4736C145.478 66.6334 145.32 66.7972 145.162 66.9611C145.046 67.0805 144.928 67.1986 144.817 67.3202C144.642 67.511 144.476 67.7066 144.311 67.902C144.226 68.0036 144.135 68.1033 144.052 68.2061C143.809 68.5078 143.576 68.8144 143.356 69.1271C142.166 70.8234 141.348 72.9629 140.836 75.3823C148.565 80.5166 157.252 86.4753 165.848 92.5482Z" fill="#990000"/>
<path d="M206.924 135.71C206.179 138.697 205.803 143.583 208.44 149.683C212.9 159.997 218.227 168.063 221.974 169.411L221.976 169.412C222.035 169.433 222.114 169.463 222.203 169.499C222.261 169.522 222.334 169.552 222.404 169.58C222.442 169.596 222.475 169.61 222.517 169.627C222.614 169.667 222.726 169.715 222.843 169.764C222.862 169.772 222.881 169.78 222.901 169.789C224.522 170.477 227.85 171.962 232.281 173.917C232.327 173.938 232.374 173.958 232.42 173.979C232.725 174.113 233.037 174.251 233.352 174.39C233.623 174.509 233.898 174.63 234.176 174.752C234.241 174.781 234.307 174.81 234.372 174.838C235.062 175.142 235.766 175.451 236.496 175.771C236.495 175.77 236.494 175.769 236.493 175.769C230.106 172.096 219.797 165.143 215.971 156.729C212.098 148.216 209.168 143.238 209.445 137.815C209.422 137.805 209.4 137.795 209.377 137.784C209.377 137.784 209.408 137.764 209.446 137.741C209.59 135.192 210.438 132.542 212.242 129.377C212.242 129.377 212.242 129.377 212.242 129.377C212.228 129.386 212.216 129.395 212.202 129.404C211.449 129.894 210.735 130.391 210.064 130.895C209.963 130.971 209.87 131.048 209.771 131.124C209.535 131.306 209.299 131.487 209.075 131.67C208.747 131.938 208.43 132.207 208.128 132.479C208.128 132.479 207.441 133.642 206.926 135.7C206.925 135.702 206.925 135.705 206.924 135.707C206.925 135.708 206.925 135.709 206.924 135.71Z" fill="#B80000"/>
<path d="M268.947 143.186C268.531 143.43 268.095 143.674 267.636 143.919C267.512 143.986 267.387 144.046 267.262 144.111L319.333 193.64C320.813 192.743 321.968 191.687 322.751 190.448L274.852 138.285C273.846 139.628 272.332 141.035 270.114 142.467C270.059 142.503 269.997 142.538 269.941 142.574C269.621 142.778 269.296 142.982 268.947 143.186Z" fill="#E10000"/>
<path d="M292.804 220.68L340.674 231.65L344.936 220.87L296.565 211.555L292.804 220.68Z" fill="#D6D6D6"/>
<path d="M267.262 144.111C267.387 144.046 267.512 143.986 267.636 143.919C268.095 143.674 268.531 143.43 268.947 143.186C269.295 142.982 269.622 142.777 269.941 142.574C269.997 142.538 270.059 142.502 270.114 142.467C270.852 141.989 271.513 141.514 272.105 141.042C266.925 138.051 249.947 129.358 226.965 128.958C217.244 132.908 210.146 137.302 209.447 137.74C209.409 137.764 209.377 137.784 209.377 137.784C209.401 137.795 209.423 137.805 209.446 137.815C219.026 142.286 227.145 145.369 234.312 147.146C245.042 149.806 253.634 149.531 261.769 146.557C263.617 145.881 265.441 145.062 267.262 144.111Z" fill="#7A0000"/>
</svg>
